<?xml version="1.0" encoding="UTF-8"?><svg id="Capa_1" xmlns="http://www.w3.org/2000/svg" viewBox="0 0 707.44 223.09"><defs><style>.cls-1,.cls-2{fill:#fff;}.cls-2,.cls-3{font-family:BebasNeue-Regular, 'Bebas Neue';font-size:41px;}.cls-4,.cls-3{fill:#e30613;}</style></defs><g><polygon class="cls-1" points="21.06 26.46 128.14 26.46 128.14 45.17 79.28 45.17 79.28 56.61 104.23 56.61 104.23 78.44 79.41 78.44 79.41 122.73 0 122.73 21.06 26.46"/><polygon class="cls-1" points="134.76 26.46 134.76 45.24 153.54 45.24 153.54 68.83 134.76 68.83 134.76 122.73 106.85 122.73 106.85 134.28 184.82 134.28 184.82 122.73 160.75 122.73 160.75 85.67 184.82 85.67 184.82 45.72 193.48 45.72 193.48 22.14 134.76 26.46"/><polygon class="cls-1" points="325.84 24.55 325.84 45.24 352.31 45.24 352.31 131.88 374.45 131.88 374.45 66.42 411.99 120.57 432.21 120.57 432.21 24.55 401.89 24.55 401.89 76.29 371.57 24.55 325.84 24.55"/><polygon class="cls-1" points="551.09 3.37 489.48 3.37 518.36 116.39 577.08 116.39 568.42 80.38 545.8 80.38 550.13 99.63 540.5 99.63 514.03 16.85 535.69 16.85 538.1 29.84 556.39 29.84 551.09 3.37"/><polygon class="cls-1" points="614.62 3.37 553.02 3.37 581.89 116.39 640.61 116.39 631.95 80.38 609.33 80.38 613.66 99.63 604.03 99.63 577.56 16.85 599.22 16.85 601.63 29.84 619.92 29.84 614.62 3.37"/><polygon class="cls-1" points="624.25 0 645.43 0 665.42 85.68 681.04 0 707.03 0 662.75 160.27 122.4 160.27 122.4 141.98 637.88 141.98 648.52 108.77 624.25 0"/><path class="cls-1" d="M321.81,19V51.25h19.25v78.93h-61.01v-38.38l6.14-6.14h-9.63V19h45.24Zm-36.34,58.82h13.69l-12.62,18.05v24.36h45.51V63.89h-19.66v-29.9h-26.4l-.51,43.83Z"/><path class="cls-1" d="M476.01,3.37l30.8,116.87h-21.84l-7.64-32.88h-16.24l5.6,32.88h-27.74V20.7h-36.58V3.37h73.64Zm-21.42,67.03h25.03l-10.83-43.94h-14.2v43.94Z"/><path class="cls-1" d="M273.14,19V83.99h-10.83v8.66h14.25v37.53h-76.34V19h72.92Zm-48.32,18.06l-5.82,30.32h36.43l5.82-30.32h-36.43Zm-3.55,66.42l-6.76,16.36h42.28l6.76-16.36h-42.28Z"/><text class="cls-2" transform="translate(254.03 214.79)"><tspan x="0" y="0">sneakers shop</tspan></text></g><g><polygon class="cls-4" points="21.47 26.56 128.55 26.56 128.55 45.27 79.69 45.27 79.69 56.71 104.64 56.71 104.64 78.54 79.83 78.54 79.83 122.83 .41 122.83 21.47 26.56"/><polygon class="cls-4" points="135.18 26.56 135.18 45.35 153.95 45.35 153.95 68.93 135.18 68.93 135.18 122.83 107.26 122.83 107.26 134.39 185.23 134.39 185.23 122.83 161.17 122.83 161.17 85.77 185.23 85.77 185.23 45.83 193.9 45.83 193.9 22.24 135.18 26.56"/><polygon class="cls-4" points="326.25 24.65 326.25 45.35 352.72 45.35 352.72 131.98 374.86 131.98 374.86 66.52 412.41 120.67 432.62 120.67 432.62 24.65 402.3 24.65 402.3 76.39 371.98 24.65 326.25 24.65"/><polygon class="cls-4" points="551.5 3.47 489.9 3.47 518.77 116.49 577.49 116.49 568.83 80.48 546.21 80.48 550.54 99.73 540.91 99.73 514.44 16.95 536.1 16.95 538.51 29.94 556.8 29.94 551.5 3.47"/><polygon class="cls-4" points="615.03 3.47 553.43 3.47 582.31 116.49 641.02 116.49 632.36 80.48 609.74 80.48 614.07 99.73 604.45 99.73 577.97 16.95 599.63 16.95 602.04 29.94 620.33 29.94 615.03 3.47"/><polygon class="cls-4" points="624.66 .1 645.84 .1 665.83 85.79 681.45 .1 707.44 .1 663.16 160.38 122.81 160.38 122.81 142.09 638.29 142.09 648.93 108.88 624.66 .1"/><path class="cls-4" d="M322.22,19.11V51.35h19.25v78.93h-61.01v-38.38l6.14-6.14h-9.63V19.11h45.24Zm-36.34,58.82h13.69l-12.62,18.05v24.36h45.51V64h-19.66v-29.9h-26.4l-.51,43.83Z"/><path class="cls-4" d="M476.42,3.47l30.8,116.87h-21.84l-7.64-32.88h-16.24l5.6,32.88h-27.74V20.8h-36.58V3.47h73.64Zm-21.42,67.03h25.03l-10.83-43.94h-14.2v43.94Z"/><path class="cls-4" d="M273.55,19.11V84.09h-10.83v8.66h14.25v37.53h-76.34V19.11h72.92Zm-48.32,18.06l-5.82,30.32h36.43l5.82-30.32h-36.43Zm-3.55,66.42l-6.76,16.36h42.28l6.76-16.36h-42.28Z"/><text class="cls-3" transform="translate(254.44 214.89)"><tspan x="0" y="0">sneakers shop</tspan></text></g></svg>